<svg width="550" height="270" viewBox="0 0 550 270" fill="none" xmlns="http://www.w3.org/2000/svg">
<path d="M9.91105 95.3254L0.572021 19.5359H14.988L20.5389 71.0964L25.4866 19.5359H39.9025L30.5635 95.3254H9.91105Z" fill="white"/>
<path d="M43.6084 95.3255V19.5791H58.2398V95.3255H43.6084Z" fill="white"/>
<path d="M70.7636 95.3255V34.1243H61.7693V19.5791H94.9064V34.1243H85.9121V95.3255H70.7636Z" fill="white"/>
<path d="M95.9404 95.3255L103.258 19.5791H128.952L136.141 95.3255H121.811L120.734 83.1033H111.61L110.662 95.3255H95.9443H95.9404ZM112.683 71.0064H119.57L116.256 32.4869H115.567L112.683 71.0064Z" fill="white"/>
<path d="M140.787 95.3255V19.5791H155.935V82.4139H171.515V95.3255H140.787Z" fill="white"/>
<path d="M195.791 95.3255V19.5791H210.422V95.3255H195.791Z" fill="white"/>
<path d="M234.436 96.0111C227.521 96.0111 222.535 94.2914 219.479 90.848C216.424 87.4046 214.896 81.9242 214.896 74.4068V67.0029H229.872V76.4712C229.872 78.2223 230.138 79.5895 230.667 80.5806C231.196 81.5716 232.124 82.0652 233.445 82.0652C234.765 82.0652 235.775 81.6657 236.308 80.8587C236.837 80.0556 237.103 78.7355 237.103 76.8982C237.103 74.5752 236.872 72.6322 236.414 71.0652C235.956 69.5022 235.156 68.0097 234.024 66.5877C232.892 65.1696 231.321 63.5125 229.312 61.6165L222.511 55.1607C217.434 50.3697 214.892 44.8893 214.892 38.7194C214.892 32.5496 216.392 27.3434 219.389 23.9588C222.386 20.5741 226.726 18.8818 232.406 18.8818C239.348 18.8818 244.276 20.7308 247.191 24.4328C250.101 28.1347 251.559 33.7561 251.559 41.3049H236.151V36.0987C236.151 35.0645 235.858 34.2615 235.27 33.6895C234.682 33.1176 233.887 32.8277 232.88 32.8277C231.674 32.8277 230.792 33.1646 230.232 33.8384C229.672 34.5122 229.394 35.3818 229.394 36.4434C229.394 37.5051 229.68 38.6528 230.256 39.8868C230.828 41.1208 231.964 42.5428 233.656 44.1489L242.392 52.54C244.143 54.2048 245.749 55.9598 247.21 57.8127C248.675 59.6618 249.851 61.8163 250.74 64.2686C251.629 66.7209 252.076 69.7137 252.076 73.2433C252.076 80.3612 250.763 85.9317 248.139 89.9627C245.514 93.9937 240.942 96.0111 234.432 96.0111H234.436Z" fill="white"/>
<path d="M275.709 95.3255L283.027 19.5791H308.721L315.909 95.3255H301.579L300.502 83.1033H291.379L290.431 95.3255H275.713H275.709ZM292.452 71.0064H299.339L296.025 32.4869H295.335L292.452 71.0064Z" fill="white"/>
<path d="M320.555 95.3255V19.5791H336.135L343.108 55.8579V19.5791H357.739V95.3255H342.935L335.359 57.4523V95.3255H320.555Z" fill="white"/>
<path d="M384.424 95.3255V19.5791H399.055V95.3255H384.424Z" fill="white"/>
<path d="M422.728 96.0111C417.248 96.0111 412.837 94.3031 409.495 90.8911C406.154 87.4751 404.481 82.6998 404.481 76.5613V41.6144C404.481 34.2693 405.938 28.6478 408.849 24.7422C411.76 20.8405 416.504 18.8896 423.073 18.8896C426.657 18.8896 429.85 19.5517 432.647 20.8679C435.444 22.1881 437.646 24.1585 439.252 26.7871C440.858 29.4117 441.661 32.718 441.661 36.7059V49.7899H426.599V38.6019C426.599 36.3337 426.313 34.806 425.737 34.0186C425.161 33.2312 424.272 32.8355 423.069 32.8355C421.663 32.8355 420.715 33.3448 420.229 34.3633C419.739 35.3818 419.496 36.7372 419.496 38.4295V76.3458C419.496 78.4416 419.806 79.9185 420.421 80.7803C421.036 81.6421 421.921 82.073 423.069 82.073C424.362 82.073 425.271 81.5442 425.803 80.4826C426.332 79.421 426.599 78.046 426.599 76.3498V62.7055H441.833V77.0353C441.833 83.6909 440.153 88.5211 436.8 91.5178C433.442 94.5146 428.753 96.015 422.724 96.015L422.728 96.0111Z" fill="white"/>
<path d="M464.946 96.0111C458.894 96.0111 454.267 94.1817 451.067 90.5228C447.866 86.864 446.268 81.5795 446.268 74.6653V38.6842C446.268 32.2009 447.85 27.2807 451.024 23.9235C454.193 20.5663 458.835 18.8896 464.946 18.8896C471.057 18.8896 475.699 20.5663 478.868 23.9235C482.037 27.2807 483.624 32.2009 483.624 38.6842V74.6653C483.624 81.5795 482.026 86.8679 478.825 90.5228C475.625 94.1817 470.998 96.0111 464.946 96.0111ZM465.075 82.0691C467.371 82.0691 468.519 79.8441 468.519 75.3978V38.4295C468.519 34.7002 467.398 32.8355 465.161 32.8355C462.635 32.8355 461.373 34.7433 461.373 38.5588V75.484C461.373 77.8384 461.659 79.5228 462.235 80.5414C462.807 81.5599 463.755 82.0691 465.075 82.0691Z" fill="white"/>
<path d="M489.735 95.3255V19.5791H505.315L512.287 55.8579V19.5791H526.919V95.3255H512.115L504.539 57.4523V95.3255H489.735Z" fill="white"/>
<path d="M532.646 95.2825V82.457H548.053V95.2825H532.646Z" fill="white"/>
<path d="M53.2058 177.101C47.9565 177.101 43.8433 176.204 40.8739 174.409C37.9045 172.615 35.8087 169.912 34.5904 166.297C33.3721 162.681 32.761 158.176 32.761 152.782V132.298C32.761 127.048 32.9843 122.414 33.4269 118.395C33.8696 114.38 34.798 111.007 36.2044 108.28C37.6107 105.554 39.7065 103.489 42.4878 102.083C45.2692 100.677 48.9868 99.9753 53.6328 99.9753C56.8176 99.9753 59.787 100.528 62.5409 101.632C65.2948 102.737 67.5199 104.386 69.2122 106.58C70.9045 108.774 71.7507 111.524 71.7507 114.822V122.998H57.1623V121.446C57.1623 120.185 57.0997 118.924 56.9704 117.658C56.8411 116.397 56.5199 115.347 56.0028 114.517C55.4857 113.686 54.6121 113.267 53.3781 113.267C51.6858 113.267 50.5106 113.733 49.8486 114.666C49.1866 115.598 48.8575 116.942 48.8575 118.689V133.88C49.5744 132.533 50.6517 131.448 52.0854 130.633C53.5192 129.814 55.2702 129.407 57.3347 129.407C61.5224 129.407 64.7425 130.245 66.995 131.925C69.2475 133.606 70.8027 136.109 71.6645 139.435C72.5263 142.765 72.9572 146.925 72.9572 151.916C72.9572 156.907 72.3383 161.376 71.1082 165.149C69.8742 168.921 67.8176 171.855 64.9305 173.951C62.0473 176.047 58.1378 177.093 53.2019 177.093L53.2058 177.101ZM52.6456 163.159C54.4241 163.159 55.4857 162.407 55.8304 160.898C56.1752 159.39 56.3475 157.463 56.3475 155.109V148.997C56.3475 144.865 55.1841 142.8 52.8611 142.8C50.1933 142.8 48.8575 144.594 48.8575 148.179V157.561C48.8575 161.29 50.1189 163.155 52.6456 163.155V163.159Z" fill="white"/>
<path d="M76.3613 176.372V163.547H91.7684V176.372H76.3613Z" fill="white"/>
<path d="M115.782 177.101C112.597 177.101 109.628 176.549 106.874 175.444C104.12 174.339 101.895 172.682 100.203 170.473C98.5102 168.263 97.6641 165.525 97.6641 162.254V154.078H112.252V155.63C112.252 156.891 112.315 158.156 112.444 159.418C112.574 160.679 112.903 161.729 113.435 162.56C113.964 163.39 114.834 163.809 116.04 163.809C117.733 163.809 118.908 163.343 119.57 162.411C120.228 161.478 120.561 160.139 120.561 158.388V143.196C119.844 144.516 118.767 145.593 117.333 146.424C115.899 147.254 114.148 147.674 112.084 147.674C107.924 147.674 104.711 146.835 102.443 145.155C100.175 143.474 98.6121 140.975 97.7503 137.645C96.8884 134.315 96.4575 130.155 96.4575 125.164C96.4575 120.174 97.0725 115.704 98.3065 111.931C99.5405 108.159 101.597 105.225 104.484 103.129C107.367 101.033 111.277 99.9873 116.213 99.9873C121.493 99.9873 125.611 100.884 128.564 102.679C131.518 104.473 133.606 107.168 134.828 110.768C136.047 114.368 136.658 118.881 136.658 124.302V144.786C136.658 150.036 136.434 154.67 135.992 158.689C135.545 162.705 134.621 166.077 133.214 168.804C131.808 171.53 129.712 173.595 126.931 175.001C124.149 176.408 120.432 177.109 115.786 177.109L115.782 177.101ZM116.558 134.28C119.225 134.28 120.561 132.486 120.561 128.901V119.519C120.561 115.79 119.3 113.925 116.773 113.925C114.995 113.925 113.933 114.677 113.588 116.186C113.243 117.694 113.071 119.621 113.071 121.976V128.087C113.071 132.219 114.235 134.284 116.558 134.284V134.28Z" fill="white"/>
<path d="M161.702 176.415V100.669H184.771L191.141 146.847L197.467 100.669H220.752V176.415H206.893V121.842L198.2 176.415H184.599L175.389 121.842V176.415H161.702Z" fill="white"/>
<path d="M226.777 176.415V100.669H241.409V176.415H226.777Z" fill="white"/>
<path d="M247.433 176.415V100.669H262.582V163.503H278.161V176.415H247.433Z" fill="white"/>
<path d="M282.467 176.415V100.669H297.615V163.503H313.194V176.415H282.467Z" fill="white"/>
<path d="M316.81 176.415V100.669H331.441V176.415H316.81Z" fill="white"/>
<path d="M355.545 177.101C349.489 177.101 344.863 175.271 341.666 171.612C338.465 167.954 336.867 162.669 336.867 155.755V119.774C336.867 113.29 338.454 108.37 341.623 105.013C344.792 101.656 349.434 99.9792 355.545 99.9792C361.656 99.9792 366.298 101.656 369.468 105.013C372.637 108.37 374.223 113.29 374.223 119.774V155.755C374.223 162.669 372.625 167.958 369.425 171.612C366.224 175.271 361.598 177.101 355.545 177.101ZM355.675 163.159C357.97 163.159 359.118 160.934 359.118 156.487V119.519C359.118 115.79 357.998 113.925 355.761 113.925C353.234 113.925 351.973 115.833 351.973 119.648V156.574C351.973 158.928 352.259 160.612 352.834 161.631C353.406 162.649 354.354 163.159 355.675 163.159Z" fill="white"/>
<path d="M380.334 176.415V100.669H395.914L402.887 136.948V100.669H417.518V176.415H402.714L395.138 138.542V176.415H380.334Z" fill="white"/>
<path d="M462.968 177.101C456.911 177.101 452.285 175.271 449.088 171.612C445.888 167.954 444.29 162.669 444.29 155.755V119.774C444.29 113.29 445.876 108.37 449.045 105.013C452.214 101.656 456.856 99.9792 462.968 99.9792C469.079 99.9792 473.721 101.656 476.89 105.013C480.059 108.37 481.646 113.29 481.646 119.774V155.755C481.646 162.669 480.047 167.958 476.847 171.612C473.646 175.271 469.02 177.101 462.968 177.101ZM463.097 163.159C465.392 163.159 466.54 160.934 466.54 156.487V119.519C466.54 115.79 465.42 113.925 463.183 113.925C460.656 113.925 459.395 115.833 459.395 119.648V156.574C459.395 158.928 459.681 160.612 460.257 161.631C460.829 162.649 461.777 163.159 463.097 163.159Z" fill="white"/>
<path d="M487.757 176.415V100.669H518.054V115.429H502.992V127.479H517.278V142.068H502.992V176.411H487.757V176.415Z" fill="white"/>
<path d="M105.107 257.505V232.587L93.0142 181.759H108.033L112.252 207.41L116.471 181.759H131.448L119.398 232.587V257.505H105.111H105.107Z" fill="white"/>
<path d="M153.354 258.191C147.301 258.191 142.671 256.361 139.474 252.702C136.274 249.043 134.676 243.759 134.676 236.845V200.864C134.676 194.38 136.262 189.46 139.431 186.103C142.6 182.746 147.242 181.069 153.354 181.069C159.465 181.069 164.107 182.746 167.276 186.103C170.445 189.46 172.032 194.38 172.032 200.864V236.845C172.032 243.759 170.433 249.047 167.233 252.702C164.032 256.361 159.406 258.191 153.354 258.191ZM153.483 244.249C155.778 244.249 156.926 242.024 156.926 237.577V200.609C156.926 196.88 155.806 195.015 153.569 195.015C151.042 195.015 149.781 196.923 149.781 200.738V237.663C149.781 240.018 150.067 241.702 150.643 242.721C151.215 243.739 152.163 244.249 153.483 244.249Z" fill="white"/>
<path d="M195.661 258.191C189.35 258.191 184.7 256.42 181.715 252.875C178.73 249.333 177.238 244.115 177.238 237.229V181.755H191.955V236.629C191.955 237.891 192.026 239.105 192.171 240.265C192.316 241.428 192.645 242.38 193.162 243.128C193.679 243.876 194.51 244.249 195.657 244.249C196.805 244.249 197.679 243.884 198.196 243.152C198.713 242.419 199.034 241.467 199.163 240.288C199.293 239.113 199.355 237.895 199.355 236.629V181.755H214.073V237.229C214.073 244.115 212.58 249.329 209.595 252.875C206.61 256.42 201.964 258.191 195.649 258.191H195.661Z" fill="white"/>
<path d="M238.482 257.505L245.8 181.759H271.494L278.682 257.505H264.353L263.275 245.283H254.152L253.204 257.505H238.486H238.482ZM255.225 233.186H262.112L258.798 194.666H258.108L255.225 233.186Z" fill="white"/>
<path d="M298.951 258.191C288.135 258.191 282.725 250.442 282.725 234.949V202.282C282.725 188.136 288.922 181.065 301.317 181.065C306.425 181.065 310.339 182.092 313.065 184.144C315.792 186.197 317.672 189.186 318.702 193.119C319.737 197.052 320.254 201.843 320.254 207.492H305.45V200.777C305.45 199.144 305.227 197.773 304.784 196.668C304.337 195.563 303.413 195.011 302.006 195.011C300.255 195.011 299.1 195.599 298.543 196.774C297.983 197.949 297.705 199.242 297.705 200.648V237.358C297.705 239.395 297.972 241.052 298.5 242.329C299.033 243.606 300.071 244.245 301.623 244.245C303.174 244.245 304.298 243.606 304.827 242.329C305.356 241.052 305.622 239.368 305.622 237.272V226.468H301.576V213.384H320.081V257.497H314.013L311.432 251.128C308.791 255.832 304.631 258.187 298.951 258.187V258.191Z" fill="white"/>
<path d="M326.063 257.505V181.759H349.305C353.179 181.759 356.105 182.64 358.084 184.407C360.062 186.17 361.39 188.637 362.064 191.811C362.738 194.98 363.074 198.705 363.074 202.979C363.074 207.253 362.549 210.41 361.504 212.878C360.458 215.346 358.483 217.054 355.584 217.998C357.966 218.488 359.635 219.671 360.599 221.547C361.558 223.428 362.04 225.86 362.04 228.842V257.505H347.107V227.85C347.107 225.641 346.657 224.27 345.752 223.741C344.847 223.212 343.39 222.946 341.384 222.946V257.505H326.063ZM341.47 209.819H345.129C347.225 209.819 348.271 207.539 348.271 202.975C348.271 200.021 348.04 198.082 347.581 197.166C347.123 196.249 346.261 195.787 345 195.787H341.47V209.819Z" fill="white"/>
<path d="M368.069 257.505V181.759H398.366V196.39H383.476V211.151H397.763V225.394H383.476V242.736H399.357V257.497H368.069V257.505Z" fill="white"/>
<path d="M404.348 257.505V181.759H434.645V196.39H419.755V211.151H434.042V225.394H419.755V242.736H435.636V257.497H404.348V257.505Z" fill="white"/>
<path d="M439.64 257.462V244.636H455.047V257.462H439.64Z" fill="white"/>
</svg>
